<mxfile host="Electron" modified="2023-06-05T16:43:22.811Z" agent="Mozilla/5.0 (Windows NT 10.0; Win64; x64) AppleWebKit/537.36 (KHTML, like Gecko) draw.io/21.2.8 Chrome/112.0.5615.165 Electron/24.2.0 Safari/537.36" etag="Nvo0cHC-C2eEUCKbtbEr" version="21.2.8" type="device">
  <diagram name="Страница 1" id="stmqI_LK0rmIZ2MczKqt">
    <mxGraphModel dx="2726" dy="1482" grid="1" gridSize="10" guides="1" tooltips="1" connect="1" arrows="1" fold="1" page="1" pageScale="1" pageWidth="998" pageHeight="479" math="0" shadow="0">
      <root>
        <mxCell id="0" />
        <mxCell id="1" parent="0" />
        <mxCell id="RG-A9WNFCr5Y1LZ2rysT-25" style="edgeStyle=orthogonalEdgeStyle;rounded=0;orthogonalLoop=1;jettySize=auto;html=1;exitX=0.5;exitY=0;exitDx=0;exitDy=0;entryX=0.5;entryY=0;entryDx=0;entryDy=0;startArrow=classic;startFill=1;" edge="1" parent="1" source="RG-A9WNFCr5Y1LZ2rysT-1" target="RG-A9WNFCr5Y1LZ2rysT-6">
          <mxGeometry relative="1" as="geometry">
            <Array as="points">
              <mxPoint x="130" />
              <mxPoint x="350" />
            </Array>
          </mxGeometry>
        </mxCell>
        <mxCell id="RG-A9WNFCr5Y1LZ2rysT-28" style="edgeStyle=orthogonalEdgeStyle;rounded=0;orthogonalLoop=1;jettySize=auto;html=1;exitX=1;exitY=0.5;exitDx=0;exitDy=0;entryX=0;entryY=0.5;entryDx=0;entryDy=0;" edge="1" parent="1" source="RG-A9WNFCr5Y1LZ2rysT-1" target="RG-A9WNFCr5Y1LZ2rysT-6">
          <mxGeometry relative="1" as="geometry" />
        </mxCell>
        <mxCell id="RG-A9WNFCr5Y1LZ2rysT-1" value="Поиск областей с источниками света" style="rounded=0;whiteSpace=wrap;html=1;fontSize=16;" vertex="1" parent="1">
          <mxGeometry x="60" y="40" width="140" height="90" as="geometry" />
        </mxCell>
        <mxCell id="RG-A9WNFCr5Y1LZ2rysT-2" value="A1" style="text;html=1;strokeColor=none;fillColor=none;align=center;verticalAlign=middle;whiteSpace=wrap;rounded=0;fontSize=14;" vertex="1" parent="1">
          <mxGeometry x="170" y="100" width="30" height="30" as="geometry" />
        </mxCell>
        <mxCell id="RG-A9WNFCr5Y1LZ2rysT-18" style="edgeStyle=orthogonalEdgeStyle;rounded=0;orthogonalLoop=1;jettySize=auto;html=1;exitX=0;exitY=0.75;exitDx=0;exitDy=0;startArrow=classic;startFill=1;endArrow=none;endFill=0;" edge="1" parent="1" source="RG-A9WNFCr5Y1LZ2rysT-6">
          <mxGeometry relative="1" as="geometry">
            <mxPoint x="-60" y="225" as="targetPoint" />
            <Array as="points">
              <mxPoint x="-30" y="225" />
            </Array>
          </mxGeometry>
        </mxCell>
        <mxCell id="RG-A9WNFCr5Y1LZ2rysT-22" style="edgeStyle=orthogonalEdgeStyle;rounded=0;orthogonalLoop=1;jettySize=auto;html=1;exitX=1;exitY=0.5;exitDx=0;exitDy=0;entryX=0;entryY=0.5;entryDx=0;entryDy=0;" edge="1" parent="1" source="RG-A9WNFCr5Y1LZ2rysT-6" target="RG-A9WNFCr5Y1LZ2rysT-10">
          <mxGeometry relative="1" as="geometry">
            <Array as="points">
              <mxPoint x="460" y="195" />
              <mxPoint x="460" y="405" />
            </Array>
          </mxGeometry>
        </mxCell>
        <mxCell id="RG-A9WNFCr5Y1LZ2rysT-6" value="Поиск трехмерного положения источников света" style="rounded=0;whiteSpace=wrap;html=1;fontSize=16;" vertex="1" parent="1">
          <mxGeometry x="270" y="150" width="160" height="100" as="geometry" />
        </mxCell>
        <mxCell id="RG-A9WNFCr5Y1LZ2rysT-19" style="edgeStyle=orthogonalEdgeStyle;rounded=0;orthogonalLoop=1;jettySize=auto;html=1;exitX=1;exitY=0.5;exitDx=0;exitDy=0;entryX=0;entryY=0.25;entryDx=0;entryDy=0;" edge="1" parent="1" source="RG-A9WNFCr5Y1LZ2rysT-8" target="RG-A9WNFCr5Y1LZ2rysT-10">
          <mxGeometry relative="1" as="geometry" />
        </mxCell>
        <mxCell id="RG-A9WNFCr5Y1LZ2rysT-21" style="edgeStyle=orthogonalEdgeStyle;rounded=0;orthogonalLoop=1;jettySize=auto;html=1;exitX=0;exitY=0.5;exitDx=0;exitDy=0;startArrow=classic;startFill=1;endArrow=none;endFill=0;" edge="1" parent="1" source="RG-A9WNFCr5Y1LZ2rysT-8">
          <mxGeometry relative="1" as="geometry">
            <mxPoint x="-60" y="315" as="targetPoint" />
          </mxGeometry>
        </mxCell>
        <mxCell id="RG-A9WNFCr5Y1LZ2rysT-26" style="edgeStyle=orthogonalEdgeStyle;rounded=0;orthogonalLoop=1;jettySize=auto;html=1;exitX=0.5;exitY=0;exitDx=0;exitDy=0;entryX=0.5;entryY=0;entryDx=0;entryDy=0;startArrow=classic;startFill=1;" edge="1" parent="1" source="RG-A9WNFCr5Y1LZ2rysT-8" target="RG-A9WNFCr5Y1LZ2rysT-10">
          <mxGeometry relative="1" as="geometry">
            <Array as="points">
              <mxPoint x="569" y="220" />
              <mxPoint x="790" y="220" />
            </Array>
          </mxGeometry>
        </mxCell>
        <mxCell id="RG-A9WNFCr5Y1LZ2rysT-8" value="Построение геометрии окружения" style="rounded=0;whiteSpace=wrap;html=1;fontSize=16;" vertex="1" parent="1">
          <mxGeometry x="499" y="270" width="140" height="90" as="geometry" />
        </mxCell>
        <mxCell id="RG-A9WNFCr5Y1LZ2rysT-9" value="A3" style="text;html=1;strokeColor=none;fillColor=none;align=center;verticalAlign=middle;whiteSpace=wrap;rounded=0;fontSize=14;" vertex="1" parent="1">
          <mxGeometry x="609" y="330" width="30" height="30" as="geometry" />
        </mxCell>
        <mxCell id="RG-A9WNFCr5Y1LZ2rysT-20" style="edgeStyle=orthogonalEdgeStyle;rounded=0;orthogonalLoop=1;jettySize=auto;html=1;exitX=1;exitY=0.5;exitDx=0;exitDy=0;entryX=-0.013;entryY=0.122;entryDx=0;entryDy=0;entryPerimeter=0;" edge="1" parent="1" source="RG-A9WNFCr5Y1LZ2rysT-10" target="RG-A9WNFCr5Y1LZ2rysT-12">
          <mxGeometry relative="1" as="geometry" />
        </mxCell>
        <mxCell id="RG-A9WNFCr5Y1LZ2rysT-27" style="edgeStyle=orthogonalEdgeStyle;rounded=0;orthogonalLoop=1;jettySize=auto;html=1;exitX=0.5;exitY=0;exitDx=0;exitDy=0;entryX=0.5;entryY=0;entryDx=0;entryDy=0;" edge="1" parent="1" source="RG-A9WNFCr5Y1LZ2rysT-10" target="RG-A9WNFCr5Y1LZ2rysT-12">
          <mxGeometry relative="1" as="geometry">
            <Array as="points">
              <mxPoint x="790" y="220" />
              <mxPoint x="1030" y="220" />
            </Array>
          </mxGeometry>
        </mxCell>
        <mxCell id="RG-A9WNFCr5Y1LZ2rysT-46" style="edgeStyle=orthogonalEdgeStyle;rounded=0;orthogonalLoop=1;jettySize=auto;html=1;exitX=0;exitY=0.75;exitDx=0;exitDy=0;startArrow=classic;startFill=1;endArrow=none;endFill=0;" edge="1" parent="1" source="RG-A9WNFCr5Y1LZ2rysT-10">
          <mxGeometry relative="1" as="geometry">
            <mxPoint x="520" y="490.0000000000002" as="targetPoint" />
          </mxGeometry>
        </mxCell>
        <mxCell id="RG-A9WNFCr5Y1LZ2rysT-10" value="Получение формы тени виртуального объекта на трехмерной геометрии окружения" style="rounded=0;whiteSpace=wrap;html=1;fontSize=16;" vertex="1" parent="1">
          <mxGeometry x="700" y="340" width="180" height="130" as="geometry" />
        </mxCell>
        <mxCell id="RG-A9WNFCr5Y1LZ2rysT-11" value="A2" style="text;html=1;strokeColor=none;fillColor=none;align=center;verticalAlign=middle;whiteSpace=wrap;rounded=0;fontSize=14;" vertex="1" parent="1">
          <mxGeometry x="400" y="220" width="30" height="30" as="geometry" />
        </mxCell>
        <mxCell id="RG-A9WNFCr5Y1LZ2rysT-23" style="edgeStyle=orthogonalEdgeStyle;rounded=0;orthogonalLoop=1;jettySize=auto;html=1;exitX=-0.005;exitY=0.332;exitDx=0;exitDy=0;startArrow=classic;startFill=1;endArrow=none;endFill=0;exitPerimeter=0;" edge="1" parent="1" source="RG-A9WNFCr5Y1LZ2rysT-12">
          <mxGeometry relative="1" as="geometry">
            <mxPoint x="-60" y="490" as="targetPoint" />
            <Array as="points">
              <mxPoint x="-60" y="490" />
            </Array>
          </mxGeometry>
        </mxCell>
        <mxCell id="RG-A9WNFCr5Y1LZ2rysT-24" style="rounded=0;orthogonalLoop=1;jettySize=auto;html=1;exitX=-0.013;exitY=0.908;exitDx=0;exitDy=0;exitPerimeter=0;startArrow=classic;startFill=1;endArrow=none;endFill=0;" edge="1" parent="1" source="RG-A9WNFCr5Y1LZ2rysT-12">
          <mxGeometry relative="1" as="geometry">
            <mxPoint x="-60" y="540" as="targetPoint" />
          </mxGeometry>
        </mxCell>
        <mxCell id="RG-A9WNFCr5Y1LZ2rysT-29" style="edgeStyle=orthogonalEdgeStyle;rounded=0;orthogonalLoop=1;jettySize=auto;html=1;exitX=1;exitY=0.5;exitDx=0;exitDy=0;" edge="1" parent="1" source="RG-A9WNFCr5Y1LZ2rysT-12">
          <mxGeometry relative="1" as="geometry">
            <mxPoint x="1250" y="505" as="targetPoint" />
          </mxGeometry>
        </mxCell>
        <mxCell id="RG-A9WNFCr5Y1LZ2rysT-12" value="&lt;div style=&quot;font-size: 16px;&quot;&gt;Синтез тени&amp;nbsp;&lt;/div&gt;&lt;div style=&quot;font-size: 16px;&quot;&gt;и кадра окружения&lt;/div&gt;" style="rounded=0;whiteSpace=wrap;html=1;fontSize=16;" vertex="1" parent="1">
          <mxGeometry x="960" y="460" width="140" height="90" as="geometry" />
        </mxCell>
        <mxCell id="RG-A9WNFCr5Y1LZ2rysT-13" value="A5" style="text;html=1;strokeColor=none;fillColor=none;align=center;verticalAlign=middle;whiteSpace=wrap;rounded=0;fontSize=14;" vertex="1" parent="1">
          <mxGeometry x="1070" y="520" width="30" height="30" as="geometry" />
        </mxCell>
        <mxCell id="RG-A9WNFCr5Y1LZ2rysT-14" value="A4" style="text;html=1;strokeColor=none;fillColor=none;align=center;verticalAlign=middle;whiteSpace=wrap;rounded=0;fontSize=14;" vertex="1" parent="1">
          <mxGeometry x="850" y="440" width="30" height="30" as="geometry" />
        </mxCell>
        <mxCell id="RG-A9WNFCr5Y1LZ2rysT-15" value="" style="endArrow=classic;html=1;rounded=0;entryX=0;entryY=0.5;entryDx=0;entryDy=0;" edge="1" parent="1" target="RG-A9WNFCr5Y1LZ2rysT-1">
          <mxGeometry width="50" height="50" relative="1" as="geometry">
            <mxPoint x="-60" y="85" as="sourcePoint" />
            <mxPoint x="20" y="70" as="targetPoint" />
          </mxGeometry>
        </mxCell>
        <mxCell id="RG-A9WNFCr5Y1LZ2rysT-30" value="" style="endArrow=none;html=1;rounded=0;" edge="1" parent="1">
          <mxGeometry width="50" height="50" relative="1" as="geometry">
            <mxPoint x="350" y="20" as="sourcePoint" />
            <mxPoint x="350" y="-30" as="targetPoint" />
          </mxGeometry>
        </mxCell>
        <mxCell id="RG-A9WNFCr5Y1LZ2rysT-31" value="" style="endArrow=none;html=1;rounded=0;" edge="1" parent="1">
          <mxGeometry width="50" height="50" relative="1" as="geometry">
            <mxPoint x="1029.6599999999999" y="250" as="sourcePoint" />
            <mxPoint x="1030" y="-30" as="targetPoint" />
          </mxGeometry>
        </mxCell>
        <mxCell id="RG-A9WNFCr5Y1LZ2rysT-33" value="Сферическая панорама окружения" style="text;html=1;strokeColor=none;fillColor=none;align=left;verticalAlign=middle;whiteSpace=wrap;rounded=0;fontSize=16;" vertex="1" parent="1">
          <mxGeometry x="-60" y="40" width="60" height="30" as="geometry" />
        </mxCell>
        <mxCell id="RG-A9WNFCr5Y1LZ2rysT-34" value="Сферическая панорама глубины окружения" style="text;html=1;strokeColor=none;fillColor=none;align=left;verticalAlign=middle;whiteSpace=wrap;rounded=0;fontSize=16;" vertex="1" parent="1">
          <mxGeometry x="-60" y="180" width="150" height="30" as="geometry" />
        </mxCell>
        <mxCell id="RG-A9WNFCr5Y1LZ2rysT-35" value="Виртуальный трехмерный объект" style="text;html=1;strokeColor=none;fillColor=none;align=left;verticalAlign=middle;whiteSpace=wrap;rounded=0;fontSize=16;" vertex="1" parent="1">
          <mxGeometry x="-60" y="440" width="150" height="30" as="geometry" />
        </mxCell>
        <mxCell id="RG-A9WNFCr5Y1LZ2rysT-36" value="Кадр окружения" style="text;html=1;strokeColor=none;fillColor=none;align=left;verticalAlign=middle;whiteSpace=wrap;rounded=0;fontSize=16;" vertex="1" parent="1">
          <mxGeometry x="-60" y="500" width="60" height="30" as="geometry" />
        </mxCell>
        <mxCell id="RG-A9WNFCr5Y1LZ2rysT-37" value="Кадр глубины окружения" style="text;html=1;strokeColor=none;fillColor=none;align=left;verticalAlign=middle;whiteSpace=wrap;rounded=0;fontSize=16;" vertex="1" parent="1">
          <mxGeometry x="-60" y="280" width="130" height="30" as="geometry" />
        </mxCell>
        <mxCell id="RG-A9WNFCr5Y1LZ2rysT-39" value="Изображение с наложенной тенью от виртуального объекта" style="text;html=1;strokeColor=none;fillColor=none;align=left;verticalAlign=middle;whiteSpace=wrap;rounded=0;fontSize=16;" vertex="1" parent="1">
          <mxGeometry x="1120" y="410" width="130" height="90" as="geometry" />
        </mxCell>
        <mxCell id="RG-A9WNFCr5Y1LZ2rysT-40" value="Алгоритм поиска положения источников света" style="text;html=1;strokeColor=none;fillColor=none;align=left;verticalAlign=middle;whiteSpace=wrap;rounded=0;fontSize=16;" vertex="1" parent="1">
          <mxGeometry x="360" y="-20" width="130" height="70" as="geometry" />
        </mxCell>
        <mxCell id="RG-A9WNFCr5Y1LZ2rysT-41" value="Алгоритм наложения теней" style="text;html=1;strokeColor=none;fillColor=none;align=left;verticalAlign=middle;whiteSpace=wrap;rounded=0;fontSize=16;" vertex="1" parent="1">
          <mxGeometry x="1040" y="-20" width="90" height="60" as="geometry" />
        </mxCell>
        <mxCell id="RG-A9WNFCr5Y1LZ2rysT-42" value="Контуры источников света" style="text;html=1;strokeColor=none;fillColor=none;align=left;verticalAlign=middle;whiteSpace=wrap;rounded=0;fontSize=16;" vertex="1" parent="1">
          <mxGeometry x="220" y="40" width="70" height="30" as="geometry" />
        </mxCell>
        <mxCell id="RG-A9WNFCr5Y1LZ2rysT-43" value="Координаты источников света" style="text;html=1;strokeColor=none;fillColor=none;align=left;verticalAlign=middle;whiteSpace=wrap;rounded=0;fontSize=16;" vertex="1" parent="1">
          <mxGeometry x="460" y="150" width="70" height="30" as="geometry" />
        </mxCell>
        <mxCell id="RG-A9WNFCr5Y1LZ2rysT-44" value="Полигональная сетка кадра" style="text;html=1;strokeColor=none;fillColor=none;align=left;verticalAlign=middle;whiteSpace=wrap;rounded=0;fontSize=16;" vertex="1" parent="1">
          <mxGeometry x="660" y="280" width="70" height="30" as="geometry" />
        </mxCell>
        <mxCell id="RG-A9WNFCr5Y1LZ2rysT-45" value="Форма тени" style="text;html=1;strokeColor=none;fillColor=none;align=left;verticalAlign=middle;whiteSpace=wrap;rounded=0;fontSize=16;" vertex="1" parent="1">
          <mxGeometry x="910" y="360" width="70" height="30" as="geometry" />
        </mxCell>
      </root>
    </mxGraphModel>
  </diagram>
</mxfile>
